<svg id="Layer_1" data-name="Layer 1" xmlns="http://www.w3.org/2000/svg" viewBox="0 0 512.34 511.66"><defs><style>.cls-1{fill:#808080;fill-rule:evenodd;}</style></defs><path class="cls-1" d="M256.17,511.66C114.92,511.66,0,396.89,0,255.83S114.92,0,256.17,0,512.34,114.76,512.34,255.83,397.42,511.66,256.17,511.66Zm216-220.81c-7.48-2.36-67.72-20.3-136.29-9.34,28.62,78.54,40.27,142.51,42.51,155.8a218.85,218.85,0,0,0,93.78-146.46ZM341.64,457.31c-3.25-19.17-16-86-46.68-165.71l-1.44.49C170.1,335,125.8,420.51,121.86,428.55a218.73,218.73,0,0,0,219.78,28.76Zm-248-55c5-8.47,65-107.77,177.86-144.2,2.85-.92,5.73-1.78,8.62-2.6-5.49-12.41-11.47-24.84-17.74-37.08-109.27,32.66-215.3,31.29-224.88,31.1-.06,2.21-.11,4.44-.11,6.67A217.51,217.51,0,0,0,93.61,402.27ZM42,211.41c9.79.13,99.94.52,202.29-26.63A1395.13,1395.13,0,0,0,163.15,58.41c-61.22,28.83-107,85.19-121.17,153ZM204.9,43.72a1168.52,1168.52,0,0,1,81.64,127.92c77.81-29.12,110.74-73.33,114.68-78.93a218.82,218.82,0,0,0-196.32-49ZM425.54,118c-4.61,6.23-41.28,53.17-122.18,86.16,5.09,10.4,10,21,14.52,31.65q2.42,5.66,4.71,11.27c72.81-9.14,145.15,5.51,152.37,7A217.31,217.31,0,0,0,425.54,118Z"/></svg>